<?xml version="1.0" encoding="UTF-8" standalone="no"?>
<svg width="23px" height="5px" viewBox="0 0 23 5" version="1.1" xmlns="http://www.w3.org/2000/svg" xmlns:xlink="http://www.w3.org/1999/xlink">
    <!-- Generator: Sketch 3.8.3 (29802) - http://www.bohemiancoding.com/sketch -->
    <title>contact</title>
    <desc>Created with Sketch.</desc>
    <defs></defs>
    <g id="Page-1" stroke="none" stroke-width="1" fill="none" fill-rule="evenodd">
        <g id="contact" fill="#000000">
            <rect id="Rectangle-53" x="0" y="1" width="1" height="1"></rect>
            <rect id="Rectangle-53-Copy-2" x="1" y="0" width="1" height="1"></rect>
            <rect id="Rectangle-53-Copy-3" x="1" y="3" width="1" height="1"></rect>
            <rect id="Rectangle-53-Copy-3" x="3" y="2" width="1" height="1"></rect>
            <rect id="Rectangle-53-Copy-3" x="4" y="3" width="1" height="1"></rect>
            <rect id="Rectangle-53-Copy-3" x="4" y="1" width="1" height="1"></rect>
            <rect id="Rectangle-53-Copy-3" x="5" y="2" width="1" height="1"></rect>
            <rect id="Rectangle-53-Copy-3" x="7" y="3" width="1" height="1"></rect>
            <rect id="Rectangle-53-Copy-3" x="7" y="2" width="1" height="1"></rect>
            <rect id="Rectangle-53-Copy-3" x="8" y="1" width="1" height="1"></rect>
            <rect id="Rectangle-53-Copy-3" x="9" y="2" width="1" height="1"></rect>
            <rect id="Rectangle-53-Copy-3" x="7" y="1" width="1" height="1"></rect>
            <rect id="Rectangle-53-Copy-3" x="9" y="3" width="1" height="1"></rect>
            <rect id="Rectangle-53-Copy-3" x="11" y="2" width="1" height="1"></rect>
            <rect id="Rectangle-53-Copy-3" x="11" y="3" width="1" height="1"></rect>
            <rect id="Rectangle-53-Copy-3" x="11" y="1" width="1" height="1"></rect>
            <rect id="Rectangle-53-Copy-3" x="12" y="2" width="1" height="1"></rect>
            <rect id="Rectangle-53-Copy-3" x="12" y="4" width="1" height="1"></rect>
            <rect id="Rectangle-53-Copy-3" x="14" y="2" width="1" height="1"></rect>
            <rect id="Rectangle-53-Copy-3" x="15" y="3" width="1" height="1"></rect>
            <rect id="Rectangle-53-Copy-3" x="15" y="1" width="1" height="1"></rect>
            <rect id="Rectangle-53-Copy-3" x="16" y="2" width="1" height="1"></rect>
            <rect id="Rectangle-53-Copy-3" x="16" y="3" width="1" height="1"></rect>
            <rect id="Rectangle-53-Copy-3" x="19" y="3" width="1" height="1"></rect>
            <rect id="Rectangle-53-Copy-3" x="18" y="2" width="1" height="1"></rect>
            <rect id="Rectangle-53-Copy-3" x="19" y="1" width="1" height="1"></rect>
            <rect id="Rectangle-53-Copy-3" x="21" y="1" width="1" height="1"></rect>
            <rect id="Rectangle-53-Copy-3" x="21" y="2" width="1" height="1"></rect>
            <rect id="Rectangle-53-Copy-3" x="21" y="3" width="1" height="1"></rect>
            <rect id="Rectangle-53-Copy-3" x="22" y="2" width="1" height="1"></rect>
            <rect id="Rectangle-53-Copy-3" x="22" y="4" width="1" height="1"></rect>
            <rect id="Rectangle-53-Copy" x="0" y="2" width="1" height="1"></rect>
        </g>
    </g>
</svg>