<?xml version="1.0" encoding="UTF-8" standalone="no"?>
<svg width="15px" height="15px" viewBox="0 0 15 15" version="1.1" xmlns="http://www.w3.org/2000/svg" xmlns:xlink="http://www.w3.org/1999/xlink">
    <!-- Generator: Sketch 3.8.3 (29802) - http://www.bohemiancoding.com/sketch -->
    <title>dribbble</title>
    <desc>Created with Sketch.</desc>
    <defs></defs>
    <g id="Page-1" stroke="none" stroke-width="1" fill="none" fill-rule="evenodd">
        <g id="dribbble">
            <rect id="Rectangle-47" fill="#EC4989" x="1" y="5" width="13" height="5"></rect>
            <rect id="Rectangle-47-Copy-4" fill="#EC4989" x="2" y="10" width="11" height="3"></rect>
            <rect id="Rectangle-47-Copy-5" fill="#EC4989" x="4" y="11" width="7" height="3"></rect>
            <rect id="Rectangle-47-Copy" fill="#EC4989" x="2" y="3" width="11" height="5"></rect>
            <rect id="Rectangle-47-Copy-2" fill="#EC4989" x="3" y="2" width="10" height="5"></rect>
            <rect id="Rectangle-47-Copy-3" fill="#EC4989" x="5" y="1" width="5" height="5"></rect>
            <rect id="Rectangle-1" fill="#000000" x="0" y="5" width="1" height="5"></rect>
            <rect id="Rectangle-1-Copy" fill="#000000" x="13" y="3" width="1" height="2"></rect>
            <rect id="Rectangle-1-Copy-2" fill="#000000" x="13" y="10" width="1" height="2"></rect>
            <rect id="Rectangle-1-Copy-3" fill="#000000" x="1" y="3" width="1" height="2"></rect>
            <rect id="Rectangle-1-Copy-4" fill="#000000" x="1" y="10" width="1" height="2"></rect>
            <rect id="Rectangle-1-Copy-5" fill="#000000" x="2" y="12" width="1" height="1"></rect>
            <rect id="Rectangle-1-Copy-6" fill="#000000" x="3" y="13" width="2" height="1"></rect>
            <rect id="Rectangle-1-Copy-7" fill="#000000" x="5" y="14" width="5" height="1"></rect>
            <rect id="Rectangle-1-Copy-15" fill="#000000" x="5" y="0" width="5" height="1"></rect>
            <rect id="Rectangle-1-Copy-8" fill="#000000" x="10" y="13" width="2" height="1"></rect>
            <rect id="Rectangle-1-Copy-12" fill="#000000" x="10" y="1" width="2" height="1"></rect>
            <rect id="Rectangle-1-Copy-13" fill="#000000" x="3" y="1" width="2" height="1"></rect>
            <rect id="Rectangle-1-Copy-9" fill="#000000" x="12" y="12" width="1" height="1"></rect>
            <rect id="Rectangle-1-Copy-11" fill="#000000" x="12" y="2" width="1" height="1"></rect>
            <rect id="Rectangle-1-Copy-14" fill="#000000" x="2" y="2" width="1" height="1"></rect>
            <rect id="Rectangle-1-Copy-16" fill="#C51E60" x="7" y="2" width="1" height="1"></rect>
            <rect id="Rectangle-1-Copy-16" fill="#C51E60" x="8" y="3" width="1" height="1"></rect>
            <rect id="Rectangle-1-Copy-16" fill="#C51E60" x="12" y="3" width="1" height="1"></rect>
            <rect id="Rectangle-1-Copy-16" fill="#C51E60" x="11" y="4" width="1" height="1"></rect>
            <rect id="Rectangle-1-Copy-16" fill="#C51E60" x="10" y="4" width="1" height="1"></rect>
            <rect id="Rectangle-1-Copy-16" fill="#C51E60" x="9" y="4" width="1" height="1"></rect>
            <rect id="Rectangle-1-Copy-16" fill="#C51E60" x="9" y="5" width="1" height="1"></rect>
            <rect id="Rectangle-1-Copy-16" fill="#C51E60" x="8" y="5" width="1" height="1"></rect>
            <rect id="Rectangle-1-Copy-16" fill="#C51E60" x="9" y="6" width="1" height="1"></rect>
            <rect id="Rectangle-1-Copy-16" fill="#C51E60" x="10" y="7" width="1" height="1"></rect>
            <rect id="Rectangle-1-Copy-16" fill="#C51E60" x="10" y="8" width="1" height="1"></rect>
            <rect id="Rectangle-1-Copy-16" fill="#C51E60" x="11" y="8" width="1" height="1"></rect>
            <rect id="Rectangle-1-Copy-16" fill="#C51E60" x="12" y="9" width="1" height="1"></rect>
            <rect id="Rectangle-1-Copy-16" fill="#C51E60" x="13" y="9" width="1" height="1"></rect>
            <rect id="Rectangle-1-Copy-16" fill="#C51E60" x="10" y="9" width="1" height="1"></rect>
            <rect id="Rectangle-1-Copy-16" fill="#C51E60" x="10" y="10" width="1" height="1"></rect>
            <rect id="Rectangle-1-Copy-16" fill="#C51E60" x="10" y="11" width="1" height="1"></rect>
            <rect id="Rectangle-1-Copy-16" fill="#C51E60" x="9" y="12" width="1" height="1"></rect>
            <rect id="Rectangle-1-Copy-16" fill="#C51E60" x="9" y="8" width="1" height="1"></rect>
            <rect id="Rectangle-1-Copy-16" fill="#C51E60" x="8" y="8" width="1" height="1"></rect>
            <rect id="Rectangle-1-Copy-16" fill="#C51E60" x="7" y="8" width="1" height="1"></rect>
            <rect id="Rectangle-1-Copy-16" fill="#C51E60" x="6" y="9" width="1" height="1"></rect>
            <rect id="Rectangle-1-Copy-16" fill="#C51E60" x="5" y="9" width="1" height="1"></rect>
            <rect id="Rectangle-1-Copy-16" fill="#C51E60" x="4" y="10" width="1" height="1"></rect>
            <rect id="Rectangle-1-Copy-16" fill="#C51E60" x="3" y="10" width="1" height="1"></rect>
            <rect id="Rectangle-1-Copy-16" fill="#C51E60" x="2" y="11" width="1" height="1"></rect>
            <rect id="Rectangle-1-Copy-16" fill="#C51E60" x="1" y="5" width="1" height="1"></rect>
            <rect id="Rectangle-1-Copy-16" fill="#C51E60" x="2" y="5" width="1" height="1"></rect>
            <rect id="Rectangle-1-Copy-16" fill="#C51E60" x="3" y="6" width="5" height="1"></rect>
            <rect id="Rectangle-1-Copy-17" fill="#C51E60" x="6" y="1" width="1" height="1"></rect>
            <rect id="Rectangle-1-Copy-10" fill="#000000" x="14" y="5" width="1" height="5"></rect>
        </g>
    </g>
</svg>